<?xml version="1.0" encoding="UTF-8" standalone="no"?>
<!DOCTYPE svg PUBLIC "-//W3C//DTD SVG 1.1//EN" "http://www.w3.org/Graphics/SVG/1.1/DTD/svg11.dtd">
<svg width="100%" height="100%" viewBox="0 0 1080 1080" version="1.1" xmlns="http://www.w3.org/2000/svg" xmlns:xlink="http://www.w3.org/1999/xlink" xml:space="preserve" xmlns:serif="http://www.serif.com/" style="fill-rule:evenodd;clip-rule:evenodd;stroke-linejoin:round;stroke-miterlimit:2;">
    <g transform="matrix(1.59986,0,0,1.59986,-324.675,-208.457)">
        <path d="M353.941,162.001C354.904,173.2 304.623,556.974 301.987,562C299.949,565.885 296.058,568.937 293,572C289.019,575.987 285.464,580.586 281,584C281.002,564.098 332.689,179.646 333.845,170C334.399,165.378 334.465,159.77 338.228,156.434C343.84,151.458 353.286,154.368 353.941,162.001Z" style="fill:url(#_Linear1);"/>
        <path d="M385.5,158.028C387.826,161.416 374,269 374,269L419,272C419,272 427.359,208.703 431.155,177C432.168,168.542 433.524,147.289 447.941,155.179C454.673,158.863 451.735,169.904 451.05,176C448.802,196.021 446.172,216.042 443.424,236C435.26,295.275 407,518 407,518L387,520L416.526,281.71L404,281L373.4,521.697L353,529L383.307,279.603L372,278.947L338.258,535.787L318,549C318,549 366.444,163.438 368.611,159.028C371.73,152.679 381.562,152.293 385.5,158.028Z" style="fill:url(#_Linear2);"/>
        <path d="M388,261L407,262C407,262 415.832,199.723 417.155,182C417.811,173.214 422.82,157.401 414.941,155.661C399.753,152.307 399.562,166.734 398.424,175C395.949,192.966 388,261 388,261Z" style="fill:url(#_Linear3);fill-rule:nonzero;"/>
        <path d="M560.001,434.639C540.711,440.147 550.458,474.009 570,468.427C588.678,463.092 579.626,429.035 560.001,434.639Z" style="fill:url(#_Linear4);fill-rule:nonzero;"/>
        <path d="M502,539.68C490.566,547.772 452.484,545.057 433,543.17C420.136,541.924 406.939,541.473 394,542.039C366.345,543.25 343.582,553.523 319,565C324.617,557.19 333.814,551.474 342,546.604C370.105,529.884 404.063,527.153 436,526.999C445.697,526.953 469.602,525.027 469.017,524.336C479.139,523.789 477.76,515.547 485.043,510.742C488.325,508.576 492.924,509.682 495.999,507.347C516.287,491.941 517.939,479.032 524,469C518.16,466.543 513.228,460.844 507,459.404C501.454,458.12 492.209,463.088 487,465.064C483.404,466.428 479.068,467.844 476.144,470.418C472.766,473.392 470.62,482.131 464.318,477.971C459.296,474.657 463.678,468.33 467.019,465.904C473.906,460.904 481.777,457.074 489,452.575C493.396,449.837 497.861,445.778 503,444.573C509.436,443.063 517.121,447.851 523,450.05C530.312,452.785 539.084,455.333 544.471,461.301C549.037,466.36 549.992,472.461 550,479C550.021,496.528 516.335,529.535 502,539.68Z" style="fill:url(#_Linear5);"/>
        <path d="M557,490C554.173,493.424 549.696,500.428 549.812,505C549.947,510.299 556.497,517.933 562.001,517.562C571.679,516.908 581.07,505.538 588,499.734C591.317,496.956 604.452,491.722 598.396,485.603C592.19,479.334 587.944,489.432 584.725,492.621C580.616,496.692 574.286,499.276 569,501.416C567.024,502.216 564.535,503.53 562.499,502.184C559.169,499.981 558.343,493.502 557,490Z" style="fill:url(#_Linear6);fill-rule:nonzero;"/>
        <path d="M500,552C509.107,555.792 517.729,560.47 527,563.95C532.354,565.959 539.864,568.153 543.258,573.105C546.154,577.331 544.754,583.312 546.916,588C551.126,597.132 558.665,603.949 561.239,614C562.505,618.943 559.848,628.642 563.603,632.397C566.391,635.184 571.61,633.685 575,633.286C583.051,632.336 592.926,634.573 599,628C589.675,627.258 577.367,624.094 571.703,615.96C567.462,609.869 567.252,600.077 565.293,593C562.768,583.875 561.707,573.367 557.095,565C552.902,557.393 546.183,551.88 540,546C536.295,542.476 528.673,533.553 523,534.168C518.385,534.669 513.661,540.388 510,542.964C506.119,545.694 502.202,547.689 500,552Z" style="fill:url(#_Linear7);fill-rule:nonzero;"/>
        <path d="M490,555C483.048,555.549 475.977,556.971 469,556.971C464.321,556.971 459.696,555.487 455,556.144C451.443,556.642 448.597,559.473 445,559.559C439.501,559.692 433.502,555.464 428,554.464C416.75,552.422 404.402,552.294 393,552.015C385.595,551.833 376.635,551.415 370.04,555.367C367.808,556.705 364.195,559.611 364.882,562.668C365.538,565.585 370.106,564.147 372,563.803C380.939,562.18 389.031,561.779 398,563.46C408.202,565.371 418.265,568.484 428,572.053C435.602,574.84 442.663,578.577 451,577.907C458.938,577.269 467.142,572.457 474,568.688C480.085,565.344 486.971,561.44 490,555Z" style="fill:url(#_Linear8);fill-rule:nonzero;"/>
        <path d="M399,574C398.064,578.526 394.171,588.286 393.368,597.829C392.223,611.448 394.393,624.955 395,625C401.825,653.735 430.551,669.085 458,671.829C482.176,674.247 507.696,672 532,672L678.602,672L684.702,658L485,658C476.551,658 467.264,659.078 459,657.101C422.361,648.335 402.089,613.172 411,577C415.467,578.723 424.216,580.252 426.972,584.418C429.714,588.563 427.617,596.206 428.464,601C431.257,616.808 440.879,629.146 456,634.935C468.517,639.727 480.827,639 494,639L796,639C803.363,639 811.961,639.445 811.961,649C811.961,652.253 810.953,655.323 807.941,656.972C805.066,658.547 799.406,658 798,658C795.836,658 737.033,657.982 720,658C711.934,658.009 697.51,657.955 697.51,657.955L691.709,671.845L784,672C787.406,672 791.725,671.332 794.956,672.603C802.861,675.713 800.481,687.779 792.996,689.682C784.902,691.74 774.343,690 766,690L683.685,690.46L678.602,702.305L772,702C775.406,702 779.725,701.332 782.956,702.603C790.241,705.469 789.339,717.49 781.985,719.566C774.009,721.819 763.266,720 755,720L671.14,719.803L666.036,731.948L758,732C762.059,732 767.245,731.199 770.956,733.179C776.307,736.033 777.876,744.456 772.772,748.397C769.455,750.957 763.92,750 760,750L659.133,750.603L652.432,765.01L745,764C751.146,764 760.506,762.242 762.562,770.005C763.923,775.141 761.195,780.372 755.985,781.606C751.587,782.647 746.492,782 742,782L413,782C408.727,782 387.182,782.421 381,781.83C348.828,778.756 318.539,764.779 297.3,740C260.615,697.2 254.963,614.972 308,582.066C323.387,572.519 341.999,568.603 360,569.015C367.02,569.175 373.987,570.699 381,571C377.904,576.151 373.271,580.104 369.782,585C364.828,591.949 361.9,599.756 359.898,608C351.073,644.338 372.086,684.616 408,696.255C429.778,703.312 452.431,702 475,702L665.532,702.047L670.809,689.896L470,690C459.689,690 449.127,690.788 439,688.501C418.679,683.91 399.833,673.302 387.721,656C383.153,649.475 372.712,621.178 374.647,604.368C375.783,594.494 378.215,575.794 382.419,573.029C386.59,570.284 394.388,573.633 399,574ZM346,587C331.069,594.613 322.322,623.58 326.845,652.614C328.931,666 345.991,700.409 366.514,714.072C396.516,734.044 434.819,731.284 452,732C499.796,733.993 652.777,731.645 652.777,731.645L658.068,719.638L445,720C431.331,720 418.28,720.362 405,716.573C396.151,714.047 387.724,710.14 380,705.135C350.287,685.883 335.696,649.748 339.171,615C340.134,605.361 343.022,596.153 346,587ZM304,647C303.619,635.974 309.355,607.82 310,605C278.433,637.254 283.095,691.623 310.465,725C324.675,742.33 344.368,754.142 366,759.525C384.303,764.079 437,764 437,764L638.895,763.997L646,750L420,750C406.022,750 392.595,750.408 379,746.572C338.385,735.112 305.565,692.332 304,647Z" style="fill:url(#_Linear9);"/>
    </g>
    <defs>
        <linearGradient id="_Linear1" x1="0" y1="0" x2="1" y2="0" gradientUnits="userSpaceOnUse" gradientTransform="matrix(12.2717,-58.3847,58.3847,12.2717,195.952,797.467)"><stop offset="0" style="stop-color:rgb(227,0,0);stop-opacity:1"/><stop offset="0.44" style="stop-color:rgb(249,204,204);stop-opacity:1"/><stop offset="1" style="stop-color:white;stop-opacity:1"/></linearGradient>
        <linearGradient id="_Linear2" x1="0" y1="0" x2="1" y2="0" gradientUnits="userSpaceOnUse" gradientTransform="matrix(12.2717,-58.3847,58.3847,12.2717,195.952,797.467)"><stop offset="0" style="stop-color:rgb(227,0,0);stop-opacity:1"/><stop offset="0.44" style="stop-color:rgb(249,204,204);stop-opacity:1"/><stop offset="1" style="stop-color:white;stop-opacity:1"/></linearGradient>
        <linearGradient id="_Linear3" x1="0" y1="0" x2="1" y2="0" gradientUnits="userSpaceOnUse" gradientTransform="matrix(12.2717,-58.3847,58.3847,12.2717,195.952,797.467)"><stop offset="0" style="stop-color:rgb(227,0,0);stop-opacity:1"/><stop offset="0.44" style="stop-color:rgb(249,204,204);stop-opacity:1"/><stop offset="1" style="stop-color:white;stop-opacity:1"/></linearGradient>
        <linearGradient id="_Linear4" x1="0" y1="0" x2="1" y2="0" gradientUnits="userSpaceOnUse" gradientTransform="matrix(12.2717,-58.3847,58.3847,12.2717,195.952,797.467)"><stop offset="0" style="stop-color:rgb(227,0,0);stop-opacity:1"/><stop offset="0.44" style="stop-color:rgb(249,204,204);stop-opacity:1"/><stop offset="1" style="stop-color:white;stop-opacity:1"/></linearGradient>
        <linearGradient id="_Linear5" x1="0" y1="0" x2="1" y2="0" gradientUnits="userSpaceOnUse" gradientTransform="matrix(12.2717,-58.3847,58.3847,12.2717,195.952,797.467)"><stop offset="0" style="stop-color:rgb(227,0,0);stop-opacity:1"/><stop offset="0.44" style="stop-color:rgb(249,204,204);stop-opacity:1"/><stop offset="1" style="stop-color:white;stop-opacity:1"/></linearGradient>
        <linearGradient id="_Linear6" x1="0" y1="0" x2="1" y2="0" gradientUnits="userSpaceOnUse" gradientTransform="matrix(12.2717,-58.3847,58.3847,12.2717,195.952,797.467)"><stop offset="0" style="stop-color:rgb(227,0,0);stop-opacity:1"/><stop offset="0.44" style="stop-color:rgb(249,204,204);stop-opacity:1"/><stop offset="1" style="stop-color:white;stop-opacity:1"/></linearGradient>
        <linearGradient id="_Linear7" x1="0" y1="0" x2="1" y2="0" gradientUnits="userSpaceOnUse" gradientTransform="matrix(12.2717,-58.3847,58.3847,12.2717,195.952,797.467)"><stop offset="0" style="stop-color:rgb(227,0,0);stop-opacity:1"/><stop offset="0.44" style="stop-color:rgb(249,204,204);stop-opacity:1"/><stop offset="1" style="stop-color:white;stop-opacity:1"/></linearGradient>
        <linearGradient id="_Linear8" x1="0" y1="0" x2="1" y2="0" gradientUnits="userSpaceOnUse" gradientTransform="matrix(12.2717,-58.3847,58.3847,12.2717,195.952,797.467)"><stop offset="0" style="stop-color:rgb(227,0,0);stop-opacity:1"/><stop offset="0.44" style="stop-color:rgb(249,204,204);stop-opacity:1"/><stop offset="1" style="stop-color:white;stop-opacity:1"/></linearGradient>
        <linearGradient id="_Linear9" x1="0" y1="0" x2="1" y2="0" gradientUnits="userSpaceOnUse" gradientTransform="matrix(12.2717,-58.3847,58.3847,12.2717,195.952,797.467)"><stop offset="0" style="stop-color:rgb(227,0,0);stop-opacity:1"/><stop offset="0.44" style="stop-color:rgb(249,204,204);stop-opacity:1"/><stop offset="1" style="stop-color:white;stop-opacity:1"/></linearGradient>
    </defs>
</svg>
